<svg xmlns="http://www.w3.org/2000/svg" style="display:none">
  <symbol id="icon-dashboard" viewBox="0 0 24 24" fill="none" stroke="currentColor" stroke-width="1.5" stroke-linecap="round" stroke-linejoin="round"><path d="M4 4h7v7H4zM13 4h7v7h-7zM4 13h7v7H4zM13 13h7v7h-7z"/></symbol>
  <symbol id="icon-today" viewBox="0 0 24 24" fill="none" stroke="currentColor" stroke-width="1.5" stroke-linecap="round" stroke-linejoin="round"><rect x="3" y="5" width="18" height="16" rx="2"/><path d="M3 9h18M8 3v4M16 3v4"/></symbol>
  <symbol id="icon-roadmap" viewBox="0 0 24 24" fill="none" stroke="currentColor" stroke-width="1.5" stroke-linecap="round" stroke-linejoin="round"><circle cx="6" cy="12" r="3"/><circle cx="18" cy="12" r="3"/><path d="M9 12h6"/></symbol>
  <symbol id="icon-mindmap" viewBox="0 0 24 24" fill="none" stroke="currentColor" stroke-width="1.5" stroke-linecap="round" stroke-linejoin="round"><circle cx="12" cy="12" r="3"/><path d="M5 5l6 5M19 5l-6 5M12 21v-6"/></symbol>
  <symbol id="icon-course" viewBox="0 0 24 24" fill="none" stroke="currentColor" stroke-width="1.5" stroke-linecap="round" stroke-linejoin="round"><path d="M12 3l8 4v10l-8 4-8-4V7z"/><path d="M12 7v10M4 7l8 4 8-4"/></symbol>
  <symbol id="icon-notes" viewBox="0 0 24 24" fill="none" stroke="currentColor" stroke-width="1.5" stroke-linecap="round" stroke-linejoin="round"><path d="M6 3h12v18H6z"/><path d="M9 8h6M9 12h6M9 16h4"/></symbol>
  <symbol id="icon-questions" viewBox="0 0 24 24" fill="none" stroke="currentColor" stroke-width="1.5" stroke-linecap="round" stroke-linejoin="round"><circle cx="12" cy="12" r="9"/><path d="M9 10a3 3 0 0 1 6 0c0 2-3 2-3 4"/><circle cx="12" cy="18" r="1"/></symbol>
  <symbol id="icon-repetition" viewBox="0 0 24 24" fill="none" stroke="currentColor" stroke-width="1.5" stroke-linecap="round" stroke-linejoin="round"><path d="M20 7V4M20 7h-3"/><path d="M4 17v3M4 17h3"/><path d="M20 7a8 8 0 0 0-14-3M4 17a8 8 0 0 0 14 3"/></symbol>
  <symbol id="icon-practice" viewBox="0 0 24 24" fill="none" stroke="currentColor" stroke-width="1.5" stroke-linecap="round" stroke-linejoin="round"><rect x="4" y="4" width="16" height="16" rx="2"/><path d="M8 12l3 3 5-6"/></symbol>
  <symbol id="icon-portfolio" viewBox="0 0 24 24" fill="none" stroke="currentColor" stroke-width="1.5" stroke-linecap="round" stroke-linejoin="round"><rect x="3" y="7" width="18" height="13" rx="2"/><path d="M8 7V5h8v2"/></symbol>
  <symbol id="icon-glossary" viewBox="0 0 24 24" fill="none" stroke="currentColor" stroke-width="1.5" stroke-linecap="round" stroke-linejoin="round"><path d="M4 4h8v16H4zM12 4h8v16h-8z"/><path d="M8 8h3M8 12h3"/></symbol>
  <symbol id="icon-pomodoro" viewBox="0 0 24 24" fill="none" stroke="currentColor" stroke-width="1.5" stroke-linecap="round" stroke-linejoin="round"><circle cx="12" cy="13" r="8"/><path d="M12 13V8M12 5V2M9 2h6"/></symbol>
  <symbol id="icon-stats" viewBox="0 0 24 24" fill="none" stroke="currentColor" stroke-width="1.5" stroke-linecap="round" stroke-linejoin="round"><path d="M4 19h16"/><path d="M7 19v-6M12 19V9M17 19v-9"/></symbol>
  <symbol id="icon-resources" viewBox="0 0 24 24" fill="none" stroke="currentColor" stroke-width="1.5" stroke-linecap="round" stroke-linejoin="round"><path d="M4 6h16v12H4z"/><path d="M4 6l8 6 8-6"/></symbol>
  <symbol id="icon-settings" viewBox="0 0 24 24" fill="none" stroke="currentColor" stroke-width="1.5" stroke-linecap="round" stroke-linejoin="round"><circle cx="12" cy="12" r="3"/><path d="M12 2v3M12 19v3M2 12h3M19 12h3M5 5l2 2M17 17l2 2M19 5l-2 2M7 17l-2 2"/></symbol>
  <symbol id="icon-search" viewBox="0 0 24 24" fill="none" stroke="currentColor" stroke-width="1.5" stroke-linecap="round" stroke-linejoin="round"><circle cx="11" cy="11" r="7"/><path d="M16 16l6 6"/></symbol>
  <symbol id="icon-menu" viewBox="0 0 24 24" fill="none" stroke="currentColor" stroke-width="1.5" stroke-linecap="round" stroke-linejoin="round"><path d="M3 6h18M3 12h18M3 18h18"/></symbol>
  <symbol id="icon-close" viewBox="0 0 24 24" fill="none" stroke="currentColor" stroke-width="1.5" stroke-linecap="round" stroke-linejoin="round"><path d="M6 6l12 12M18 6L6 18"/></symbol>
  <symbol id="icon-chevron-right" viewBox="0 0 24 24" fill="none" stroke="currentColor" stroke-width="1.5" stroke-linecap="round" stroke-linejoin="round"><path d="M9 5l7 7-7 7"/></symbol>
  <symbol id="icon-collapse" viewBox="0 0 24 24" fill="none" stroke="currentColor" stroke-width="1.5" stroke-linecap="round" stroke-linejoin="round"><path d="M13 6l-6 6 6 6M20 6l-6 6 6 6"/></symbol>
  <symbol id="icon-sun" viewBox="0 0 24 24" fill="none" stroke="currentColor" stroke-width="1.5" stroke-linecap="round" stroke-linejoin="round"><circle cx="12" cy="12" r="4"/><path d="M12 2v2M12 20v2M2 12h2M20 12h2M4.9 4.9l1.4 1.4M17.7 17.7l1.4 1.4M19.1 4.9l-1.4 1.4M6.3 17.7l-1.4 1.4"/></symbol>
  <symbol id="icon-moon" viewBox="0 0 24 24" fill="none" stroke="currentColor" stroke-width="1.5" stroke-linecap="round" stroke-linejoin="round"><path d="M20 13A8 8 0 0 1 11 4a8 8 0 1 0 9 9z"/></symbol>
  <symbol id="icon-save" viewBox="0 0 24 24" fill="none" stroke="currentColor" stroke-width="1.5" stroke-linecap="round" stroke-linejoin="round"><path d="M5 3h12l3 3v15H5z"/><path d="M8 3v5h8V3M8 21v-7h8v7"/></symbol>
  <symbol id="icon-export" viewBox="0 0 24 24" fill="none" stroke="currentColor" stroke-width="1.5" stroke-linecap="round" stroke-linejoin="round"><path d="M12 3v10M7 8l5 5 5-5"/><path d="M4 19h16"/></symbol>
  <symbol id="icon-import" viewBox="0 0 24 24" fill="none" stroke="currentColor" stroke-width="1.5" stroke-linecap="round" stroke-linejoin="round"><path d="M12 4v12M7 11l5 5 5-5"/><path d="M4 20h16"/></symbol>
  <symbol id="icon-check" viewBox="0 0 24 24" fill="none" stroke="currentColor" stroke-width="1.5" stroke-linecap="round" stroke-linejoin="round"><path d="M5 12l5 5 9-11"/></symbol>
</svg>